Coordinates
version=1
nRows=17
nColumns=34
inDegrees=yes

Units are S.I. units (second, meters, Newtons, ...)
If the header above contains a line with 'inDegrees', this indicates whether rotational values are in degrees (yes) or radians (no).

endheader
time	pelvis_tilt	pelvis_list	pelvis_rotation	pelvis_tx	pelvis_ty	pelvis_tz	hip_flexion_r	hip_adduction_r	hip_rotation_r	knee_angle_r	ankle_angle_r	subtalar_angle_r	mtp_angle_r	hip_flexion_l	hip_adduction_l	hip_rotation_l	knee_angle_l	ankle_angle_l	subtalar_angle_l	mtp_angle_l	lumbar_extension	lumbar_bending	lumbar_rotation	arm_flex_r	arm_add_r	arm_rot_r	elbow_flex_r	pro_sup_r	arm_flex_l	arm_add_l	arm_rot_l	elbow_flex_l	pro_sup_l
      0.00000000	     13.98175993	     -6.35732725	     -1.66805239	     -6.59598098	      0.95722395	      0.27222406	     -9.22094770	      9.58328342	     -5.00245284	     22.78810755	      8.28130163	    -25.49061955	      0.00000000	     12.94633788	     -8.17275080	      2.54496588	     28.99274303	      0.69289758	    -16.12306899	      0.00000000	    -24.60782998	      8.35694967	      4.73183173	     18.57931663	     -3.48304798	     16.68647882	     65.69449474	    100.56189217	      5.27509969	      2.80507320	      7.19209078	     20.82050740	     60.97799813
      0.01666670	     15.42979981	     -3.72173437	     -1.97285099	     -6.59961926	      0.96468457	      0.27466486	     -9.43359895	      7.20854740	     -4.44622876	     24.15390195	      9.26055133	    -26.20768821	      0.00000000	     11.82930206	     -4.02047873	      2.12132551	     31.48717553	      0.11273877	    -18.56080084	      0.00000000	    -27.67903137	      5.95284845	      4.08710684	     19.64478084	     -2.51354416	     16.19805199	     66.83113333	     99.55474054	      6.14271276	      1.74814165	      5.72001669	     22.09946641	     61.42505738
      0.03333330	     15.82415970	     -2.32345219	     -1.79585262	     -6.59963637	      0.96665312	      0.27593879	    -10.23102163	      5.75789831	     -5.99020922	     23.27491036	     10.27746264	    -24.96479728	      0.00000000	     10.89248277	     -2.06152679	      2.20777831	     31.17169962	     -0.88009276	    -19.54311222	      0.00000000	    -28.33755321	      4.24173729	      3.41768075	     19.77019823	     -2.39098946	     17.02282821	     66.51398763	     98.76019020	      6.92808649	      0.88356340	      6.41729570	     21.47952747	     62.57449234
      0.05000000	     16.82818650	     -1.98680186	     -1.52465335	     -6.60115419	      0.96989615	      0.27617090	    -11.47601433	      5.35746433	     -6.85036991	     22.96460726	     10.81075345	    -23.47230839	      0.00000000	      9.48154914	     -1.54688818	      2.60914226	     31.08274843	     -2.33148885	    -20.78604995	      0.00000000	    -29.88259570	      3.83414381	      3.02911090	     19.94403019	     -2.79343229	     18.42014126	     67.34821973	     98.46055735	      7.56694416	      0.31572821	      7.60172116	     21.10168570	     63.67650838
      0.06666670	     17.55027890	     -1.90211401	     -1.29965612	     -6.60227526	      0.97369911	      0.27643884	    -12.41907253	      5.26885438	     -7.71426207	     22.65107940	     11.76500195	    -21.44322596	      0.00000000	      8.36383943	     -1.28275180	      3.08606603	     30.66698715	     -4.68251273	    -22.82068096	      0.00000000	    -30.98239880	      3.73777903	      2.91144521	     20.13989304	     -2.98253763	     19.15572469	     67.54061427	     97.75939387	      8.25655869	      0.07816530	     10.17577394	     20.46299410	     66.12990486
      0.08333330	     18.18363384	     -2.08330057	     -1.07481611	     -6.60193011	      0.97585377	      0.27668799	    -13.32148439	      5.56467875	     -7.67838547	     22.20694621	     11.37952323	    -20.87166140	      0.00000000	      7.54335386	     -1.41886990	      3.28300453	     30.39614610	     -5.70572370	    -23.27926621	      0.00000000	    -31.78453866	      3.92204870	      2.88073588	     20.49805209	     -3.28412615	     19.36608025	     67.60438802	     97.54511645	      8.70709684	      0.20806027	     10.77285973	     19.96741823	     66.87882669
      0.10000000	     18.55974237	     -2.11989842	     -1.00302061	     -6.60275134	      0.97805297	      0.27710246	    -13.70115904	      5.62125397	     -7.70333168	     22.11700942	     10.76965873	    -20.82114384	      0.00000000	      6.97698580	     -1.42273538	      3.35900285	     29.87647003	     -7.35526947	    -24.27765269	      0.00000000	    -32.37528273	      3.87114611	      2.81278628	     20.95363860	     -3.33490157	     19.41352399	     67.43501404	     97.31375215	      9.12049932	      0.23995407	     11.55454782	     19.66522919	     67.71108221
      0.11666670	     18.56377740	     -2.16466985	     -0.97259768	     -6.60591481	      0.97838081	      0.27761219	    -13.65469718	      5.59199081	     -8.09030499	     22.12432685	     10.17542013	    -20.80590888	      0.00000000	      7.02132933	     -1.48157743	      3.20977911	     29.62625568	     -8.12154604	    -24.08739063	      0.00000000	    -32.52465367	      3.88202379	      2.78805793	     21.29993834	     -3.39768271	     19.30121768	     67.35461504	     97.27768451	      9.36135754	      0.27900699	     11.67731578	     19.68469686	     67.82976117
      0.13333330	     19.07545256	     -1.93926119	     -1.03104485	     -6.60886187	      0.97825178	      0.27841016	    -14.58358073	      5.27923041	     -8.41849274	     21.49559989	      8.46125126	    -22.35621554	      0.00000000	      6.10163417	     -1.14082798	      3.36694709	     28.69225748	     -9.59328292	    -25.29029480	      0.00000000	    -33.08786313	      3.55558731	      2.49635074	     21.82711440	     -3.11924300	     19.08607358	     66.56683330	     97.16551656	      9.61469122	      0.07405540	     12.47525805	     19.34003358	     68.45180462
      0.15000000	     18.97429127	     -1.79147330	     -1.15050273	     -6.60851928	      0.97683745	      0.27888239	    -14.74512186	      4.93006337	     -9.36293349	     21.18213246	      7.78600861	    -22.70502728	      0.00000000	      6.04784693	     -1.05937245	      2.98215374	     28.21194529	    -10.18821465	    -25.19280379	      0.00000000	    -32.95226127	      3.31738291	      2.49447432	     21.89471028	     -3.15418782	     19.08354778	     66.49331607	     97.16318871	      9.65460196	      0.01007132	     12.58655718	     19.34095345	     68.53492799
      0.16666670	     19.66896044	     -1.38786617	     -1.28148414	     -6.60614891	      0.97773325	      0.27926269	    -16.00409331	      4.46856920	     -9.66448562	     20.41331063	      5.95236463	    -24.68993701	      0.00000000	      4.71157774	     -0.56429103	      3.13424843	     27.19730755	    -11.32239699	    -26.00435124	      0.00000000	    -33.55896846	      2.79343934	      2.21985688	     22.09903394	     -2.70187875	     18.78234976	     65.80346701	     97.17090307	      9.70729726	     -0.37950494	     13.36891844	     19.13598289	     69.00564242
      0.18333330	     19.57192366	     -1.18568920	     -1.31953018	     -6.60338166	      0.97793933	      0.27933624	    -16.12995488	      4.23177073	    -10.16059486	     20.08154814	      5.73884248	    -25.03562941	      0.00000000	      4.55927409	     -0.41043631	      2.95403626	     26.86602068	    -11.55230107	    -25.99422353	      0.00000000	    -33.26315486	      2.48550120	      2.18803997	     21.77140271	     -2.72820106	     18.85102692	     65.74544301	     97.19051224	      9.60110125	     -0.53961180	     13.47464987	     19.11424627	     69.06709246
      0.20000000	     19.90341172	     -0.90224943	     -1.36853347	     -6.60283568	      0.97844913	      0.27983810	    -16.64516136	      3.99327294	    -10.16620355	     19.80867784	      5.05257043	    -25.89396405	      0.00000000	      3.78315020	     -0.11301365	      3.01310353	     26.26435752	    -12.11592259	    -26.29130095	      0.00000000	    -33.55753869	      2.10681532	      2.12443312	     21.67046315	     -2.48846296	     18.55388307	     65.41474671	     97.25492986	      9.64894293	     -0.87844394	     14.12190400	     19.05674076	     69.37445733
      0.21666670	     19.90075154	     -0.87511756	     -1.35595203	     -6.60337750	      0.97815725	      0.27999788	    -16.60577886	      4.01210528	    -10.16760962	     19.78365872	      5.05541869	    -25.89560968	      0.00000000	      3.73762147	     -0.11079782	      3.00926662	     26.28312838	    -12.11774611	    -26.29211763	      0.00000000	    -33.55237474	      2.10828243	      2.13103254	     21.67029087	     -2.48675327	     18.55463119	     65.41516026	     97.25525940	      9.64309089	     -0.88409170	     14.12296642	     19.05433222	     69.37502237
      0.23333330	     19.87863102	     -0.83427993	     -1.23690539	     -6.60363419	      0.97882388	      0.28049751	    -16.69709888	      4.15792161	    -10.02674233	     19.41646312	      5.23667890	    -25.95090882	      0.00000000	      3.67264305	     -0.12515277	      3.05054264	     26.12270920	    -12.24923302	    -26.24000150	      0.00000000	    -33.39204988	      2.10228438	      2.25118755	     21.71058507	     -2.46939817	     18.54546083	     65.37224160	     97.26496220	      9.69594756	     -1.12564340	     14.15763047	     19.02442421	     69.39602805
      0.25000000	     19.92047949	     -0.79703861	     -1.11241298	     -6.60356263	      0.97924857	      0.28072265	    -16.70694059	      4.22944864	     -9.96244648	     19.37419780	      5.25637709	    -25.93351934	      0.00000000	      3.65670874	     -0.11805646	      3.06193514	     26.13091753	    -12.28214996	    -26.22532643	      0.00000000	    -33.38658241	      2.08808720	      2.30752066	     21.75246830	     -2.45409557	     18.54224281	     65.35087358	     97.26715418	      9.68586252	     -1.11368648	     14.17659564	     19.01757123	     69.40269095
      0.26666670	     20.44386968	     -0.91804236	     -0.97404282	     -6.60379839	      0.98038426	      0.28075199	    -17.56101520	      4.53019453	     -9.69314409	     18.73482046	      5.33295090	    -25.58385089	      0.00000000	      3.10467716	     -0.20251812	      3.39111205	     26.16900930	    -12.50049351	    -26.36225007	      0.00000000	    -33.74576218	      2.33505871	      2.33377052	     22.24341192	     -2.29230079	     18.44337216	     64.25923431	     97.39401929	     10.06868726	     -1.16653858	     15.27124851	     18.51427340	     69.80433954
